# File created by Blade
# Date/Time:  Thu Sep 25 19:26:26 2014
# Frame Rate: 120.000 fps
#------------------------------------------------------
:FULLY-SPECIFIED
:DEGREES
1317
root 5.978233 33.226870 -7.018113 7.792558 -0.406674 -2.953319
Spine -12.753873 3.444344 2.438782
Head -8.759131 -6.691536 11.452404
LeftShoulder -10.850385 15.795288 31.452741
LeftArm 20.605194 -22.444034 -27.270482
LeftForeArm 13.587431 -0.000000 12.313070
LeftHand -26.937086 -0.000000 -8.034396
LeftHandThumb1 -26.253704 0.000000 33.147579
RightShoulder -21.012119 13.975778 -41.348322
RightArm -1.462804 8.119003 28.669786
RightForeArm -32.215469 -0.000000 15.238394
RightHand -12.722469 -0.000000 -4.277933
RightHandThumb1 -24.326973 -0.000000 -32.862282
LeftUpLeg -0.311619 2.792911 6.419999
LeftLeg -2.342258 -0.000000 0.000000
LeftFoot -11.177515 7.413845 -20.577240
LeftToeBase 10.213635 -0.000000 -0.000000
RightUpLeg -4.919022 -6.945982 -1.124364
RightLeg 3.421209 -0.000000 -0.000000
RightFoot -6.718785 -2.396072 6.019436
RightToeBase -0.178813 -0.000000 0.000000
1318
root 5.882583 33.219115 -7.018043 7.859119 -0.418095 -2.958519
Spine -12.810881 3.484098 2.332280
Head -8.826672 -6.748365 11.524670
LeftShoulder -10.976839 15.781512 31.399108
LeftArm 20.481095 -22.427554 -27.047148
LeftForeArm 13.467204 -0.000000 12.384503
LeftHand -27.035855 -0.000000 -8.045759
LeftHandThumb1 -26.253704 0.000000 33.147579
RightShoulder -21.036639 13.997128 -41.368760
RightArm -1.389962 8.246549 28.580925
RightForeArm -32.310926 0.000000 15.177947
RightHand -12.608086 0.000000 -4.040934
RightHandThumb1 -24.326973 -0.000000 -32.862282
LeftUpLeg -0.345356 2.755883 6.578413
LeftLeg -2.411314 -0.000000 0.000000
LeftFoot -11.201654 7.576110 -20.753677
LeftToeBase 10.180746 -0.000000 -0.000000
RightUpLeg -4.815490 -6.828323 -0.947976
RightLeg 3.102561 -0.000000 -0.000000
RightFoot -6.697951 -2.458011 5.804092
RightToeBase -0.010133 -0.000000 0.000000
1319
root 5.787784 33.211195 -7.015300 7.907253 -0.394811 -2.935306
Spine -12.842316 3.501584 2.198623
Head -8.959742 -6.807803 11.591314
LeftShoulder -11.070587 15.689110 31.351657
LeftArm 20.365378 -22.679320 -26.956578
LeftForeArm 13.722656 -0.000000 12.432818
LeftHand -26.953581 -0.000000 -8.045441
LeftHandThumb1 -26.253704 0.000000 33.147579
RightShoulder -20.997433 14.216478 -41.407248
RightArm -1.579045 8.160516 28.402573
RightForeArm -32.319392 -0.000000 15.229260
RightHand -12.716984 0.000000 -3.920452
RightHandThumb1 -24.326973 -0.000000 -32.862282
LeftUpLeg -0.409517 2.791595 6.704077
LeftLeg -2.380606 -0.000000 0.000000
LeftFoot -11.211814 7.625248 -20.763390
LeftToeBase 10.135367 -0.000000 -0.000000
RightUpLeg -4.655436 -6.577835 -0.795776
RightLeg 2.715807 -0.000000 -0.000000
RightFoot -6.699060 -2.827005 5.594482
RightToeBase -0.021180 -0.000000 0.000000
1320
root 5.685321 33.203666 -7.012815 7.932672 -0.360832 -2.906431
Spine -12.836725 3.511693 2.025182
Head -9.091678 -6.887800 11.680438
LeftShoulder -11.188204 15.671969 31.301487
LeftArm 20.315651 -22.846878 -26.792604
LeftForeArm 13.799510 0.000000 12.416164
LeftHand -26.949379 -0.000000 -8.076675
LeftHandThumb1 -26.253704 0.000000 33.147579
RightShoulder -20.998158 14.326581 -41.450987
RightArm -1.681593 8.190462 28.334557
RightForeArm -32.318756 -0.000000 15.206499
RightHand -12.693328 -0.000000 -3.761598
RightHandThumb1 -24.326973 -0.000000 -32.862282
LeftUpLeg -0.560996 3.085238 6.837298
LeftLeg -2.133745 -0.000000 0.000000
LeftFoot -11.192849 7.371614 -20.677513
LeftToeBase 10.081047 -0.000000 -0.000000
RightUpLeg -4.465973 -6.276247 -0.638681
RightLeg 2.303056 -0.000000 -0.000000
RightFoot -6.705473 -3.267851 5.418723
RightToeBase 0.094764 -0.000000 -0.000000
1321
root 5.583208 33.199630 -7.008460 7.938977 -0.252683 -2.880900
Spine -12.822670 3.470394 1.864542
Head -9.169513 -6.992051 11.809258
LeftShoulder -11.250472 15.665062 31.226588
LeftArm 20.240821 -23.034943 -26.605586
LeftForeArm 14.043161 -0.000000 12.444579
LeftHand -27.015665 -0.000000 -8.021062
LeftHandThumb1 -26.253704 0.000000 33.147579
RightShoulder -20.998422 14.383897 -41.431351
RightArm -1.755771 8.239106 28.231111
RightForeArm -32.366940 -0.000000 15.189484
RightHand -12.677775 0.000000 -3.481869
RightHandThumb1 -24.326973 -0.000000 -32.862282
LeftUpLeg -0.682673 3.105581 6.977972
LeftLeg -1.911722 -0.000000 0.000000
LeftFoot -11.252596 7.307972 -20.760052
LeftToeBase 10.151550 -0.000000 -0.000000
RightUpLeg -4.247772 -5.985999 -0.471091
RightLeg 1.888256 -0.000000 -0.000000
RightFoot -6.659616 -3.759938 5.221821
RightToeBase 0.182036 -0.000000 -0.000000
1322
root 5.479430 33.195062 -7.006955 7.935132 -0.202511 -2.821215
Spine -12.777289 3.482764 1.647594
Head -9.275627 -7.109903 11.941789
LeftShoulder -11.297055 15.586877 31.227702
LeftArm 20.138699 -23.156485 -26.476514
LeftForeArm 14.089731 -0.000000 12.456200
LeftHand -26.923567 -0.000000 -7.997060
LeftHandThumb1 -26.253704 0.000000 33.147579
RightShoulder -20.983160 14.398100 -41.452346
RightArm -1.851616 8.351892 28.229266
RightForeArm -32.345047 0.000000 15.110017
RightHand -12.710511 -0.000000 -3.422384
RightHandThumb1 -24.326973 -0.000000 -32.862282
LeftUpLeg -0.804485 3.237192 7.087695
LeftLeg -1.691556 -0.000000 0.000000
LeftFoot -11.242373 7.297351 -20.734886
LeftToeBase 9.840079 -0.000000 -0.000000
RightUpLeg -4.067399 -5.679682 -0.338762
RightLeg 1.562663 -0.000000 -0.000000
RightFoot -6.661632 -4.217143 4.996567
RightToeBase 0.260041 -0.000000 -0.000000
1323
root 5.377351 33.192079 -7.005764 7.927802 -0.099782 -2.766978
Spine -12.712669 3.437927 1.484045
Head -9.436501 -7.237114 11.911201
LeftShoulder -11.383054 15.533798 31.171077
LeftArm 20.045058 -23.366010 -26.374802
LeftForeArm 14.319191 -0.000000 12.557212
LeftHand -26.998661 0.000000 -8.267944
LeftHandThumb1 -26.253704 0.000000 33.147579
RightShoulder -20.958254 14.559675 -41.591967
RightArm -2.078849 8.411252 28.261420
RightForeArm -32.439780 -0.000000 15.066460
RightHand -12.643506 -0.000000 -3.227746
RightHandThumb1 -24.326973 -0.000000 -32.862282
LeftUpLeg -0.972655 3.424388 7.191117
LeftLeg -1.363009 -0.000000 0.000000
LeftFoot -11.271888 7.078826 -20.786915
LeftToeBase 9.952295 -0.000000 -0.000000
RightUpLeg -3.920201 -5.447656 -0.208748
RightLeg 1.317259 -0.000000 -0.000000
RightFoot -6.683400 -4.584855 4.845193
RightToeBase 0.349342 -0.000000 -0.000000
1324
root 5.271058 33.190552 -7.003102 7.887042 0.010892 -2.725774
Spine -12.590734 3.401484 1.304836
Head -9.615953 -7.339073 11.966592
LeftShoulder -11.430740 15.408089 31.143839
LeftArm 19.941913 -23.406981 -26.208106
LeftForeArm 14.475894 0.000000 12.502083
LeftHand -26.992604 -0.000000 -8.196488
LeftHandThumb1 -26.253704 0.000000 33.147579
RightShoulder -20.962515 14.598596 -41.595114
RightArm -2.198828 8.485869 28.241852
RightForeArm -32.395768 0.000000 15.017175
RightHand -12.758455 -0.000000 -3.032036
RightHandThumb1 -24.326973 -0.000000 -32.862282
LeftUpLeg -1.097233 3.569236 7.324363
LeftLeg -1.079067 -0.000000 0.000000
LeftFoot -11.260999 6.928381 -20.808860
LeftToeBase 9.930894 -0.000000 -0.000000
RightUpLeg -3.749569 -5.217627 -0.062192
RightLeg 1.086997 -0.000000 -0.000000
RightFoot -6.677478 -4.930612 4.714381
RightToeBase 0.466871 -0.000000 -0.000000
1325
root 5.162284 33.190536 -7.005111 7.870288 0.121234 -2.717337
Spine -12.490588 3.397190 1.179597
Head -9.805242 -7.496326 12.018297
LeftShoulder -11.475458 15.302669 31.113784
LeftArm 19.866680 -23.531764 -26.120291
LeftForeArm 14.586764 -0.000000 12.524807
LeftHand -26.789903 0.000000 -8.287770
LeftHandThumb1 -26.253704 0.000000 33.147579
RightShoulder -20.961265 14.637386 -41.649085
RightArm -2.315694 8.670496 28.252720
RightForeArm -32.488338 -0.000000 14.866371
RightHand -12.717132 -0.000000 -2.795467
RightHandThumb1 -24.326973 -0.000000 -32.862282
LeftUpLeg -1.276621 3.709223 7.491515
LeftLeg -0.742283 -0.000000 0.000000
LeftFoot -11.272144 6.782359 -20.817743
LeftToeBase 9.995482 -0.000000 -0.000000
RightUpLeg -3.587180 -4.904961 0.110925
RightLeg 0.804864 -0.000000 -0.000000
RightFoot -6.614918 -5.282413 4.655289
RightToeBase 0.604587 -0.000000 -0.000000
1326
root 5.056122 33.189551 -7.006904 7.832719 0.232739 -2.693143
Spine -12.348693 3.345586 1.070212
Head -10.033426 -7.555767 11.978143
LeftShoulder -11.540242 15.160257 31.087062
LeftArm 19.732266 -23.529939 -26.019653
LeftForeArm 14.668680 -0.000000 12.511324
LeftHand -26.773664 0.000000 -8.360545
LeftHandThumb1 -26.253704 0.000000 33.147579
RightShoulder -20.897837 14.783656 -41.754461
RightArm -2.573101 8.692386 28.258388
RightForeArm -32.503697 -0.000000 14.811421
RightHand -12.794474 -0.000000 -2.485984
RightHandThumb1 -24.326973 -0.000000 -32.862282
LeftUpLeg -1.442208 3.915695 7.641140
LeftLeg -0.401693 -0.000000 0.000000
LeftFoot -11.238778 6.548952 -20.829100
LeftToeBase 9.966142 -0.000000 -0.000000
RightUpLeg -3.463296 -4.703093 0.267260
RightLeg 0.647623 -0.000000 -0.000000
RightFoot -6.608192 -5.557284 4.578886
RightToeBase 0.717539 -0.000000 -0.000000
1327
root 4.949943 33.189742 -7.011617 7.815057 0.316525 -2.662939
Spine -12.220940 3.345566 0.929214
Head -10.270907 -7.617909 11.944951
LeftShoulder -11.588875 15.082945 31.093917
LeftArm 19.641022 -23.575890 -25.974843
LeftForeArm 14.690266 -0.000000 12.527449
LeftHand -26.895766 -0.000000 -8.481116
LeftHandThumb1 -26.253704 0.000000 33.147579
RightShoulder -20.899572 14.841333 -41.805786
RightArm -2.692689 8.690816 28.265724
RightForeArm -32.361114 -0.000000 14.686885
RightHand -12.785010 0.000000 -2.175674
RightHandThumb1 -24.326973 -0.000000 -32.862282
LeftUpLeg -1.641759 4.174153 7.776440
LeftLeg -0.028356 -0.000000 0.000000
LeftFoot -11.206281 6.321947 -20.759108
LeftToeBase 9.987618 -0.000000 -0.000000
RightUpLeg -3.450993 -4.599049 0.426440
RightLeg 0.656541 -0.000000 -0.000000
RightFoot -6.652636 -5.742364 4.407238
RightToeBase 0.767796 -0.000000 -0.000000
